<?xml version="1.0" encoding="utf-8"?>
<!-- Generator: Adobe Illustrator 22.0.1, SVG Export Plug-In . SVG Version: 6.00 Build 0)  -->
<svg version="1.1" id="Layer_1" xmlns="http://www.w3.org/2000/svg" xmlns:xlink="http://www.w3.org/1999/xlink" x="0px" y="0px"
	 viewBox="0 0 1039.6 1080" style="enable-background:new 0 0 1039.6 1080;" xml:space="preserve">
<style type="text/css">
	.st0{fill:#1FCD8E;}
</style>
<path class="st0" d="M1.9,550.7C3,465.5,34.4,392.4,93.5,331.9c73.4-75.3,148.3-149.2,222.8-223.4c24.6-24.5,46.8-51.7,76.4-71.1
	c83.6-55,210.5-45,285.4,21.1c50,44.1,77.1,97.7,75.5,164.7c-0.2,9.2,3.6,10.6,11.5,10.6c90.5,0.8,157.6,46.1,211.6,114
	c39.1,49.2,59.4,106.9,61.1,169.6c2.1,80.2-23.5,152.1-77.2,211.7C888.2,809.4,809.1,883,733,959.6c-29.1,29.3-57,59.9-92.8,81.9
	c-97.5,59.9-229.5,45.3-310.9-35.1c-76.4-75.6-153.2-150.8-229.3-226.7c-44.5-44.4-76.9-96.1-90.4-158.5
	C4.7,597.9,1.1,574.6,1.9,550.7z M119.5,540.9c0,59.8,11.9,104.3,44.2,140.4c61.4,68.7,128.5,132,194.4,196.2
	c24.2,23.6,55.2,20.9,79.8-2.4c10.5-9.9,20.5-20.3,30.7-30.5c51-51,102.1-101.9,152.8-153.2c21-21.3,20.4-40.1,0-60.4
	c-30.7-30.5-61.4-61-92.2-91.4c-13.9-13.8-15.5-13.9-29.1-0.5c-41.3,41-82.5,81.9-123.3,123.4c-6.3,6.4-9,5.8-14.8-0.2
	c-21.3-22.1-43-43.8-65.2-65.1c-6.1-5.9-6.4-8.6-0.1-14.8c49.8-49.5,99-99.6,148.7-149.2C500.8,378,556.7,323.3,612,268.1
	c22.1-22,28.4-49.3,18.2-78.2c-17.3-49-74.6-75.4-121.4-69.4c-38.8,5-71,23.5-98.3,50.7c-72.9,72.5-145.9,145-218.2,218.1
	C147.8,434.5,119.5,487.4,119.5,540.9z M498.6,969.1c3.5,1.4,4.2,1.9,5,1.9c2.3-0.1,4.7-0.2,6.9-0.5c41.3-5.7,77.5-22.7,107-51.9
	c83.9-83.2,169.2-165.1,250.2-251.1c77.4-82.1,70.9-204.8-6-276.5c-57.1-53.2-130.6-63.7-197.2-13.4c-23.1,17.5-41.5,40-62.7,59.5
	c-7,6.4-7.6,10.1-0.3,17.2c46.4,45,92.2,90.6,138.2,136c7.6,7.5,14.8,15.4,20.1,24.8c22.2,38.9,15.8,78.1-19.2,113.4
	C686.3,783.4,631.6,838,576.9,892.5C551.3,917.9,525.3,943,498.6,969.1z"/>
</svg>
